<mxfile host="app.diagrams.net" modified="2023-04-11T18:25:33.458Z" agent="Mozilla/5.0 (Windows NT 10.0; Win64; x64; rv:109.0) Gecko/20100101 Firefox/111.0" etag="2q1KJLtxPYw2hvwvO4SE" version="21.1.5" type="github">
  <diagram name="Page-1" id="IjVy13B8rFnKBIwWiO01">
    <mxGraphModel dx="1420" dy="820" grid="1" gridSize="10" guides="1" tooltips="1" connect="1" arrows="1" fold="1" page="1" pageScale="1" pageWidth="827" pageHeight="1169" math="0" shadow="0">
      <root>
        <mxCell id="0" />
        <mxCell id="1" parent="0" />
        <mxCell id="4" value="&lt;p style=&quot;line-height: 70%;&quot;&gt;Generated &lt;br&gt;&lt;br&gt;Image&lt;/p&gt;" style="ellipse;aspect=fixed;strokeWidth=2;whiteSpace=wrap;html=1;spacing=0;rounded=1;" parent="1" vertex="1">
          <mxGeometry x="314" y="360" width="100" height="100" as="geometry" />
        </mxCell>
        <mxCell id="7" value="Loss Calculation" style="ellipse;aspect=fixed;strokeWidth=2;whiteSpace=wrap;rounded=1;" parent="1" vertex="1">
          <mxGeometry x="870" y="288" width="130" height="130" as="geometry" />
        </mxCell>
        <mxCell id="8" value="Backpropagation" style="ellipse;aspect=fixed;strokeWidth=2;whiteSpace=wrap;rounded=1;" parent="1" vertex="1">
          <mxGeometry x="1107" y="350" width="134" height="134" as="geometry" />
        </mxCell>
        <mxCell id="9" value="" style="curved=1;startArrow=none;endArrow=block;exitX=1;exitY=0.5;entryX=0;entryY=0.5;exitDx=0;exitDy=0;entryDx=0;entryDy=0;rounded=1;" parent="1" source="Aj60ghzuDaMvXFJyosJj-15" target="Aj60ghzuDaMvXFJyosJj-17" edge="1">
          <mxGeometry relative="1" as="geometry">
            <Array as="points" />
            <mxPoint x="113" y="470" as="sourcePoint" />
            <mxPoint x="163" y="470" as="targetPoint" />
          </mxGeometry>
        </mxCell>
        <mxCell id="10" value="" style="curved=1;startArrow=none;endArrow=block;exitX=1.025;exitY=0.113;entryX=0.003381646197775136;entryY=0.5013285097868546;exitDx=0;exitDy=0;exitPerimeter=0;rounded=1;" parent="1" source="Aj60ghzuDaMvXFJyosJj-17" target="4" edge="1">
          <mxGeometry relative="1" as="geometry">
            <Array as="points">
              <mxPoint x="270" y="410" />
            </Array>
            <mxPoint x="242.2982617360692" y="443.7315261499016" as="sourcePoint" />
          </mxGeometry>
        </mxCell>
        <mxCell id="12" value="" style="curved=1;startArrow=none;endArrow=block;exitX=1;exitY=0.505;exitDx=0;exitDy=0;exitPerimeter=0;rounded=1;" parent="1" source="Aj60ghzuDaMvXFJyosJj-38" edge="1">
          <mxGeometry relative="1" as="geometry">
            <Array as="points" />
            <mxPoint x="600" y="418.5" as="sourcePoint" />
            <mxPoint x="762" y="354" as="targetPoint" />
          </mxGeometry>
        </mxCell>
        <mxCell id="13" value="" style="curved=1;startArrow=none;endArrow=block;exitX=1;exitY=0.5;entryX=0.0008974515474759615;entryY=0.5014102642352765;exitDx=0;exitDy=0;rounded=1;" parent="1" source="Aj60ghzuDaMvXFJyosJj-38" target="7" edge="1">
          <mxGeometry relative="1" as="geometry">
            <Array as="points" />
            <mxPoint x="855" y="421.5" as="sourcePoint" />
          </mxGeometry>
        </mxCell>
        <mxCell id="14" value="" style="curved=1;startArrow=none;endArrow=block;exitX=1.0023077157827525;exitY=0.5014102642352765;entryX=0.0022388287444612873;entryY=0.2188593199797392;rounded=1;" parent="1" source="7" target="8" edge="1">
          <mxGeometry relative="1" as="geometry">
            <Array as="points">
              <mxPoint x="1090" y="350" />
            </Array>
          </mxGeometry>
        </mxCell>
        <mxCell id="15" value="Update Weights" style="curved=1;startArrow=none;endArrow=block;exitX=0.0022388287444612873;exitY=0.7852451804065131;entryX=0.9939393997192383;entryY=0.8802895868467702;rounded=1;" parent="1" source="8" edge="1">
          <mxGeometry relative="1" as="geometry">
            <Array as="points">
              <mxPoint x="1060" y="522" />
              <mxPoint x="275" y="522" />
            </Array>
            <mxPoint x="241.90561034797292" y="496.788026546119" as="targetPoint" />
          </mxGeometry>
        </mxCell>
        <mxCell id="Aj60ghzuDaMvXFJyosJj-15" value="&lt;div&gt;Noise&lt;/div&gt;&lt;div&gt;Vector&lt;br&gt;&lt;/div&gt;" style="rounded=1;whiteSpace=wrap;html=1;fillColor=#f5f5f5;fontColor=#333333;strokeColor=#666666;" vertex="1" parent="1">
          <mxGeometry x="40" y="403" width="36.5" height="140" as="geometry" />
        </mxCell>
        <mxCell id="Aj60ghzuDaMvXFJyosJj-17" value="&lt;div&gt;Generator&lt;/div&gt;" style="whiteSpace=wrap;html=1;aspect=fixed;fillColor=#dae8fc;strokeColor=#6c8ebf;rounded=1;" vertex="1" parent="1">
          <mxGeometry x="120" y="413" width="120" height="120" as="geometry" />
        </mxCell>
        <mxCell id="Aj60ghzuDaMvXFJyosJj-20" value="&lt;div&gt;Discriminator&lt;/div&gt;" style="whiteSpace=wrap;html=1;aspect=fixed;fillColor=#dae8fc;strokeColor=#6c8ebf;rounded=1;" vertex="1" parent="1">
          <mxGeometry x="510" y="293" width="120" height="120" as="geometry" />
        </mxCell>
        <mxCell id="Aj60ghzuDaMvXFJyosJj-25" value="&lt;p style=&quot;line-height: 70%;&quot;&gt;Real&lt;br&gt;&lt;br&gt;Image&lt;/p&gt;" style="ellipse;aspect=fixed;strokeWidth=2;whiteSpace=wrap;html=1;spacing=0;rounded=1;" vertex="1" parent="1">
          <mxGeometry x="314" y="240" width="100" height="100" as="geometry" />
        </mxCell>
        <mxCell id="Aj60ghzuDaMvXFJyosJj-32" value="" style="curved=1;startArrow=none;endArrow=block;exitX=1;exitY=0.5;entryX=0;entryY=0.25;exitDx=0;exitDy=0;entryDx=0;entryDy=0;rounded=1;" edge="1" parent="1" source="Aj60ghzuDaMvXFJyosJj-25" target="Aj60ghzuDaMvXFJyosJj-20">
          <mxGeometry relative="1" as="geometry">
            <Array as="points">
              <mxPoint x="470" y="290" />
            </Array>
            <mxPoint x="253" y="437" as="sourcePoint" />
            <mxPoint x="324" y="428" as="targetPoint" />
          </mxGeometry>
        </mxCell>
        <mxCell id="Aj60ghzuDaMvXFJyosJj-35" value="" style="curved=1;startArrow=none;endArrow=block;exitX=1;exitY=0.5;entryX=0;entryY=0.75;exitDx=0;exitDy=0;entryDx=0;entryDy=0;rounded=1;" edge="1" parent="1" source="4" target="Aj60ghzuDaMvXFJyosJj-20">
          <mxGeometry relative="1" as="geometry">
            <Array as="points">
              <mxPoint x="470" y="410" />
            </Array>
            <mxPoint x="424" y="290" as="sourcePoint" />
            <mxPoint x="530" y="320" as="targetPoint" />
          </mxGeometry>
        </mxCell>
        <mxCell id="Aj60ghzuDaMvXFJyosJj-39" value="Update Weights" style="curved=1;startArrow=none;endArrow=block;rounded=1;edgeStyle=orthogonalEdgeStyle;exitX=0.5;exitY=0;exitDx=0;exitDy=0;entryX=0.5;entryY=0;entryDx=0;entryDy=0;" edge="1" parent="1" source="8" target="Aj60ghzuDaMvXFJyosJj-20">
          <mxGeometry relative="1" as="geometry">
            <Array as="points">
              <mxPoint x="1174" y="240" />
              <mxPoint x="570" y="240" />
            </Array>
            <mxPoint x="1200" y="240" as="sourcePoint" />
            <mxPoint x="560" y="290" as="targetPoint" />
          </mxGeometry>
        </mxCell>
        <mxCell id="Aj60ghzuDaMvXFJyosJj-42" value="" style="curved=1;startArrow=none;endArrow=block;exitX=1;exitY=0.505;exitDx=0;exitDy=0;exitPerimeter=0;rounded=1;" edge="1" parent="1" source="Aj60ghzuDaMvXFJyosJj-20" target="Aj60ghzuDaMvXFJyosJj-38">
          <mxGeometry relative="1" as="geometry">
            <Array as="points" />
            <mxPoint x="630" y="354" as="sourcePoint" />
            <mxPoint x="762" y="354" as="targetPoint" />
          </mxGeometry>
        </mxCell>
        <mxCell id="Aj60ghzuDaMvXFJyosJj-38" value="&lt;div&gt;Real&lt;/div&gt;&lt;div&gt;or&lt;/div&gt;&lt;div&gt;Fake &lt;br&gt;&lt;/div&gt;&lt;div&gt;&lt;br&gt;&lt;/div&gt;" style="whiteSpace=wrap;html=1;aspect=fixed;verticalAlign=bottom;rounded=1;" vertex="1" parent="1">
          <mxGeometry x="710" y="313" width="80" height="80" as="geometry" />
        </mxCell>
      </root>
    </mxGraphModel>
  </diagram>
</mxfile>
